<?xml version="1.0" encoding="UTF-8" standalone="no"?>
<svg
   width="103px"
   height="137px"
   viewBox="0 0 103 137"
   version="1.1"
   id="svg270"
   sodipodi:docname="icon-shield-analytics.svg"
   inkscape:version="1.2 (dc2aedaf03, 2022-05-15)"
   xmlns:inkscape="http://www.inkscape.org/namespaces/inkscape"
   xmlns:sodipodi="http://sodipodi.sourceforge.net/DTD/sodipodi-0.dtd"
   xmlns="http://www.w3.org/2000/svg"
   xmlns:svg="http://www.w3.org/2000/svg">
  <defs
     id="defs274" />
  <sodipodi:namedview
     id="namedview272"
     pagecolor="#505050"
     bordercolor="#ffffff"
     borderopacity="1"
     inkscape:showpageshadow="0"
     inkscape:pageopacity="0"
     inkscape:pagecheckerboard="1"
     inkscape:deskcolor="#505050"
     showgrid="false"
     inkscape:zoom="4.1032839"
     inkscape:cx="33.6316"
     inkscape:cy="75.671099"
     inkscape:window-width="1620"
     inkscape:window-height="1010"
     inkscape:window-x="-6"
     inkscape:window-y="-6"
     inkscape:window-maximized="1"
     inkscape:current-layer="svg270" />
  <path
     d="M51.0601526,136.449096 C81.5839818,118.800544 102.120305,85.814071 102.120305,48.0334 C102.120305,34.3670048 99.4331589,21.3279231 94.5581607,9.41520809 C81.5154691,3.37246198 66.9821953,0 51.6608603,0 C35.7550523,0 20.698578,3.63467269 7.27745518,10.1183798 C2.58263604,21.8403188 0,34.6354016 0,48.0334 C0,85.814071 20.5363234,118.800544 51.0601526,136.449096 L51.0601526,136.449096 Z"
     id="Oval-1-Copy-5"
     fill="#FF4D39" />
  <path
     d="m 51.539269,122.36029 c 24.080918,-14.14313 40.245747,-40.304686 40.245747,-70.239919 0,-10.900126 -2.14323,-21.299915 -6.03146,-30.80133 C 75.350887,16.499431 63.759083,13.809603 51.539,13.809603 Z"
     id="Oval-1-Copy-6"
     fill="#f9796a"
     sodipodi:nodetypes="csccc" />
  <path
     d="M6.0070764,130.297446 C33.6095562,114.086046 52.1383092,84.0986547 52.1383092,49.7857321 C52.1383092,37.2915864 49.6816557,25.3709456 45.2248156,14.4800563 C33.3008746,8.95563312 20.0142078,5.87244762 6.0070764,5.87244762 L6.0070764,130.297446 L6.0070764,130.297446 Z"
     id="Oval-1-Copy-7"
     opacity="0.150944496"
     fill="#FF4D39"
     transform="translate(29.072693, 68.084947) scale(-1, 1) translate(-29.072693, -68.084947) " />
  <path
     id="path535-0"
     style="fill:#ffffff;stroke-width:5.71295;stroke-linecap:round;stop-color:#000000"
     d="m 58.75573,81.587584 c 0,4.473501 -3.224699,8.09999 -7.202565,8.09999 -3.977866,0 -7.202564,-3.626489 -7.202564,-8.09999 V 59.393823 c 0,-4.473501 3.224698,-8.099989 7.202564,-8.099989 3.977866,0 7.202565,3.626488 7.202565,8.099989"
     sodipodi:nodetypes="csccsc" />
  <ellipse
     style="fill:#ffffff;stroke-width:5.71295;stroke-linecap:round;stop-color:#000000"
     id="path535-0-3"
     cx="30.172812"
     cy="81.587585"
     rx="7.2025652"
     ry="8.0999918" />
  <path
     id="path535-0-2"
     style="fill:#ffffff;stroke-width:5.71295;stroke-linecap:round;stop-color:#000000"
     d="m 80.136084,81.587584 c 0,4.473501 -3.224699,8.09999 -7.202565,8.09999 -3.977866,0 -7.202564,-3.626489 -7.202564,-8.09999 V 43.364286 c 0,-4.473501 3.224698,-8.09999 7.202564,-8.09999 3.977866,0 7.202565,3.626489 7.202565,8.09999"
     sodipodi:nodetypes="csccsc" />
</svg>
